<svg width="286" height="48" viewBox="0 0 286 48" fill="none" xmlns="http://www.w3.org/2000/svg">
<path d="M23.04 17.592C26.56 17.976 29.376 18.6 31.488 19.464C33.632 20.328 35.184 21.464 36.144 22.872C37.104 24.28 37.584 26.04 37.584 28.152C37.584 30.456 36.832 32.472 35.328 34.2C33.856 35.896 31.808 37.208 29.184 38.136C26.56 39.032 23.568 39.48 20.208 39.48C16.464 39.48 13.296 39.016 10.704 38.088C8.112 37.16 6.176 35.928 4.896 34.392C3.616 32.824 2.976 31.112 2.976 29.256C2.976 28.936 3.072 28.68 3.264 28.488C3.488 28.296 3.76 28.2 4.08 28.2H13.92C14.592 28.2 15.136 28.408 15.552 28.824C16.096 29.336 16.704 29.688 17.376 29.88C18.048 30.04 18.992 30.12 20.208 30.12C23.248 30.12 24.768 29.656 24.768 28.728C24.768 28.344 24.56 28.024 24.144 27.768C23.76 27.48 23.056 27.24 22.032 27.048C21.04 26.824 19.568 26.6 17.616 26.376C13.232 25.864 9.872 24.776 7.536 23.112C5.2 21.416 4.032 19.032 4.032 15.96C4.032 13.784 4.688 11.864 6 10.2C7.312 8.536 9.168 7.24 11.568 6.312C14 5.384 16.816 4.92 20.016 4.92C23.344 4.92 26.256 5.448 28.752 6.504C31.248 7.528 33.152 8.808 34.464 10.344C35.776 11.88 36.432 13.384 36.432 14.856C36.432 15.176 36.32 15.432 36.096 15.624C35.904 15.816 35.632 15.912 35.28 15.912H24.96C24.416 15.912 23.92 15.72 23.472 15.336C23.12 15.016 22.704 14.76 22.224 14.568C21.744 14.376 21.008 14.28 20.016 14.28C17.872 14.28 16.8 14.728 16.8 15.624C16.8 16.104 17.216 16.488 18.048 16.776C18.88 17.032 20.544 17.304 23.04 17.592ZM77.7413 5.4C78.0933 5.4 78.3973 5.528 78.6533 5.784C78.9093 6.04 79.0373 6.344 79.0373 6.696V14.424C79.0373 14.776 78.9093 15.08 78.6533 15.336C78.3973 15.592 78.0933 15.72 77.7413 15.72H67.4213V37.704C67.4213 38.056 67.2933 38.36 67.0373 38.616C66.7813 38.872 66.4773 39 66.1252 39H56.2373C55.8853 39 55.5813 38.872 55.3253 38.616C55.0693 38.36 54.9413 38.056 54.9413 37.704V15.72H44.6213C44.2693 15.72 43.9653 15.592 43.7093 15.336C43.4533 15.08 43.3253 14.776 43.3253 14.424V6.696C43.3253 6.344 43.4533 6.04 43.7093 5.784C43.9653 5.528 44.2693 5.4 44.6213 5.4H77.7413ZM117.515 29.64C117.867 29.64 118.171 29.768 118.427 30.024C118.683 30.28 118.811 30.584 118.811 30.936V37.704C118.811 38.056 118.683 38.36 118.427 38.616C118.171 38.872 117.867 39 117.515 39H87.1785C86.8265 39 86.5225 38.872 86.2665 38.616C86.0105 38.36 85.8825 38.056 85.8825 37.704V6.696C85.8825 6.344 86.0105 6.04 86.2665 5.784C86.5225 5.528 86.8265 5.4 87.1785 5.4H117.035C117.387 5.4 117.691 5.528 117.947 5.784C118.203 6.04 118.331 6.344 118.331 6.696V13.464C118.331 13.816 118.203 14.12 117.947 14.376C117.691 14.632 117.387 14.76 117.035 14.76H98.3625V17.784H114.395C114.747 17.784 115.051 17.912 115.307 18.168C115.563 18.424 115.691 18.728 115.691 19.08V25.32C115.691 25.672 115.563 25.976 115.307 26.232C115.051 26.488 114.747 26.616 114.395 26.616H98.3625V29.64H117.515ZM160.552 5.4C160.84 5.4 161.08 5.512 161.272 5.736C161.496 5.928 161.608 6.168 161.608 6.456L161.56 6.792L150.52 37.416C150.36 37.864 150.104 38.248 149.752 38.568C149.4 38.856 148.936 39 148.36 39H137.176C136.6 39 136.136 38.856 135.784 38.568C135.432 38.248 135.192 37.912 135.064 37.56L123.928 6.792L123.88 6.456C123.88 6.168 123.976 5.928 124.168 5.736C124.392 5.512 124.648 5.4 124.936 5.4H135.064C135.64 5.4 136.104 5.576 136.456 5.928C136.84 6.248 137.096 6.6 137.224 6.984L142.744 25.368L148.264 6.984C148.392 6.568 148.632 6.2 148.984 5.88C149.336 5.56 149.816 5.4 150.424 5.4H160.552ZM176.613 37.368C176.197 38.456 175.477 39 174.453 39H165.381C165.093 39 164.837 38.904 164.613 38.712C164.421 38.488 164.325 38.232 164.325 37.944L164.373 37.656L174.837 6.984C174.965 6.568 175.205 6.2 175.557 5.88C175.909 5.56 176.389 5.4 176.997 5.4H190.341C190.949 5.4 191.429 5.56 191.781 5.88C192.133 6.2 192.373 6.568 192.501 6.984L202.965 37.656L203.013 37.944C203.013 38.232 202.901 38.488 202.677 38.712C202.485 38.904 202.245 39 201.957 39H192.885C191.861 39 191.141 38.456 190.725 37.368L189.525 34.008H177.813L176.613 37.368ZM183.669 14.664L180.261 24.648H187.077L183.669 14.664ZM239.33 5.4C239.682 5.4 239.986 5.528 240.242 5.784C240.498 6.04 240.626 6.344 240.626 6.696V37.704C240.626 38.056 240.498 38.36 240.242 38.616C239.986 38.872 239.682 39 239.33 39H231.602C230.834 39 230.194 38.664 229.682 37.992L219.218 24.648V37.704C219.218 38.056 219.09 38.36 218.834 38.616C218.578 38.872 218.274 39 217.922 39H208.994C208.642 39 208.338 38.872 208.082 38.616C207.826 38.36 207.698 38.056 207.698 37.704V6.696C207.698 6.344 207.826 6.04 208.082 5.784C208.338 5.528 208.642 5.4 208.994 5.4H216.77C217.538 5.4 218.162 5.72 218.642 6.36L229.106 20.808V6.696C229.106 6.344 229.234 6.04 229.49 5.784C229.746 5.528 230.05 5.4 230.402 5.4H239.33ZM270.128 27.576C270.48 27.576 270.784 27.704 271.04 27.96C271.296 28.216 271.424 28.52 271.424 28.872V37.704C271.424 38.056 271.296 38.36 271.04 38.616C270.784 38.872 270.48 39 270.128 39H260.048C259.696 39 259.392 38.872 259.136 38.616C258.88 38.36 258.752 38.056 258.752 37.704V28.872C258.752 28.52 258.88 28.216 259.136 27.96C259.392 27.704 259.696 27.576 260.048 27.576H270.128Z" fill="black"/>
</svg>
